HIERARCHY
ROOT Hips
{
 OFFSET 0.000000 0.000000 0.000000
 CHANNELS 6 Xposition Yposition Zposition Yrotation Xrotation Zrotation
 JOINT Chest
 {
  OFFSET 0.000000 11.395451 -0.039534
  CHANNELS 3 Yrotation Xrotation Zrotation
  JOINT Chest2
  {
   OFFSET 0.000000 9.398669 0.071813
   CHANNELS 3 Yrotation Xrotation Zrotation
   JOINT Chest3
   {
    OFFSET 0.000000 8.489801 0.000000
    CHANNELS 3 Yrotation Xrotation Zrotation
    JOINT Chest4
    {
     OFFSET 0.000000 8.489801 0.000000
     CHANNELS 3 Yrotation Xrotation Zrotation
     JOINT Neck
     {
      OFFSET 0.000000 12.404889 0.000000
      CHANNELS 3 Yrotation Xrotation Zrotation
      JOINT Head
      {
       OFFSET 0.000000 8.903270 0.092239
       CHANNELS 3 Yrotation Xrotation Zrotation
       End Site
       {
        OFFSET 0.000000 17.592497 0.007158
       }
      }
     }
     JOINT RightCollar
     {
      OFFSET -3.196775 6.966722 0.000000
      CHANNELS 3 Yrotation Xrotation Zrotation
      JOINT RightShoulder
      {
       OFFSET -15.955896 0.000000 0.000000
       CHANNELS 3 Yrotation Xrotation Zrotation
       JOINT RightElbow
       {
        OFFSET -24.792472 0.000000 0.000000
        CHANNELS 3 Yrotation Xrotation Zrotation
        JOINT RightWrist
        {
         OFFSET -20.900115 0.000000 0.025002
         CHANNELS 3 Yrotation Xrotation Zrotation
         End Site
         {
          OFFSET -16.056692 0.000000 0.000000
         }
        }
       }
      }
     }
     JOINT LeftCollar
     {
      OFFSET 3.196775 6.966722 0.000000
      CHANNELS 3 Yrotation Xrotation Zrotation
      JOINT LeftShoulder
      {
       OFFSET 15.955896 0.000000 0.000000
       CHANNELS 3 Yrotation Xrotation Zrotation
       JOINT LeftElbow
       {
        OFFSET 24.792472 0.000000 0.000000
        CHANNELS 3 Yrotation Xrotation Zrotation
        JOINT LeftWrist
        {
         OFFSET 20.900115 0.000000 0.025002
         CHANNELS 3 Yrotation Xrotation Zrotation
         End Site
         {
          OFFSET 16.056692 0.000000 0.000000
         }
        }
       }
      }
     }
    }
   }
  }
 }
 JOINT RightHip
 {
  OFFSET -9.568995 0.193718 0.019767
  CHANNELS 3 Yrotation Xrotation Zrotation
  JOINT RightKnee
  {
   OFFSET 0.000000 -56.649296 0.015402
   CHANNELS 3 Yrotation Xrotation Zrotation
   JOINT RightAnkle
   {
    OFFSET 0.000000 -41.365147 0.021264
    CHANNELS 3 Yrotation Xrotation Zrotation
    JOINT RightToe
    {
     OFFSET 0.000000 -7.465940 17.672538
     CHANNELS 3 Yrotation Xrotation Zrotation
     End Site
     {
      OFFSET 0.000000 -1.736315 7.837145
     }
    }
   }
  }
 }
 JOINT LeftHip
 {
  OFFSET 9.568995 0.193718 0.019767
  CHANNELS 3 Yrotation Xrotation Zrotation
  JOINT LeftKnee
  {
   OFFSET 0.000000 -56.649296 0.015402
   CHANNELS 3 Yrotation Xrotation Zrotation
   JOINT LeftAnkle
   {
    OFFSET 0.000000 -41.365147 0.021264
    CHANNELS 3 Yrotation Xrotation Zrotation
    JOINT LeftToe
    {
     OFFSET 0.000000 -7.465940 17.672538
     CHANNELS 3 Yrotation Xrotation Zrotation
     End Site
     {
      OFFSET 0.000000 -1.736315 7.837145
     }
    }
   }
  }
 }
}
MOTION
Frames: 14
Frame Time: 0.016667
-269.986243 106.465399 313.087641 -121.666877 -8.598116 -1.722238 0.009633 5.904373 0.626535 -0.003706 2.624177 0.277957 -0.003706 2.624177 0.277957 -0.003973 1.968132 0.208447 -0.654997 15.459731 -0.067552 -1.198421 -7.472938 0.117643 0.357172 5.934361 7.123222 10.912272 -12.420872 74.122150 2.473330 3.116194 0.380122 -3.946902 1.439655 3.081241 -4.513682 8.881375 -6.836490 -3.843909 -16.092247 -73.185364 -4.449581 2.491363 -4.366032 4.813637 -2.449389 -2.993319 -4.437305 12.049652 0.843494 0.208678 2.749443 -0.711574 -2.506569 -7.713841 -0.662464 0.000000 0.000000 0.000000 -0.234273 12.586674 0.300842 -0.207159 6.515666 -0.046530 6.992383 -11.809649 0.678410 0.000000 0.000000 0.000000
-269.964365 106.453585 313.143170 -121.677363 -8.514770 -1.709635 0.012712 5.860783 0.631790 -0.002347 2.604808 0.280257 -0.002347 2.604808 0.280257 -0.002955 1.953605 0.210167 -0.638620 15.460734 -0.067809 -1.167726 -7.471195 0.111057 0.306118 5.899325 7.111073 10.919324 -12.305449 74.192302 2.484537 3.136999 0.357954 -3.897482 1.445383 3.046832 -4.488214 8.822498 -6.821997 -3.869653 -16.014820 -73.302320 -4.469473 2.523722 -4.345638 4.776262 -2.449302 -2.929921 -4.429818 11.912628 0.814343 0.196343 2.740258 -0.726325 -2.483986 -7.664531 -0.622733 0.000000 0.000000 0.000000 -0.203048 12.448561 0.283572 -0.227402 6.569895 -0.070375 6.984056 -11.800877 0.711160 0.000000 -0.000000 0.000000
-269.942486 106.441770 313.198699 -121.687828 -8.431423 -1.697050 0.015803 5.817193 0.637045 -0.000981 2.585439 0.282557 -0.000981 2.585439 0.282557 -0.001932 1.939080 0.211886 -0.622242 15.461743 -0.068063 -1.137032 -7.469436 0.104479 0.255089 5.864260 7.098944 10.926452 -12.189985 74.262378 2.495718 3.157797 0.335770 -3.848073 1.451152 3.012418 -4.462742 8.763624 -6.807531 -3.895453 -15.937439 -73.419310 -4.489304 2.556117 -4.325249 4.738939 -2.449119 -2.866493 -4.422296 11.775605 0.785187 0.184020 2.731075 -0.741086 -2.461385 -7.615245 -0.582967 0.000000 -0.000000 0.000000 -0.171803 12.310461 0.266200 -0.247636 6.624130 -0.094235 6.975743 -11.792101 0.743907 0.000000 0.000000 0.000000
-269.921185 106.432851 313.252008 -121.693841 -8.353994 -1.685885 0.018622 5.779197 0.642511 0.000255 2.568556 0.284955 0.000255 2.568556 0.284955 -0.001007 1.926418 0.213679 -0.607874 15.457749 -0.068551 -1.110033 -7.476955 0.098254 0.208612 5.830330 7.088139 10.940933 -12.084559 74.324829 2.509771 3.176117 0.315347 -3.800299 1.455859 2.979151 -4.438298 8.704763 -6.796434 -3.915188 -15.868508 -73.529608 -4.508472 2.586072 -4.308719 4.701753 -2.452262 -2.804872 -4.410662 11.653589 0.760896 0.166523 2.722726 -0.752342 -2.443375 -7.571711 -0.548418 0.000000 0.000000 0.000000 -0.147307 12.181343 0.249163 -0.264282 6.674964 -0.114837 6.967921 -11.782681 0.772647 -0.000000 -0.000000 0.000000
-269.900328 106.428474 313.302723 -121.691645 -8.285197 -1.676597 0.019953 5.751081 0.648332 0.000813 2.556062 0.287526 0.000813 2.556062 0.287526 -0.000594 1.917048 0.215606 -0.596668 15.443532 -0.069751 -1.088735 -7.503440 0.091959 0.169355 5.795852 7.078820 10.967412 -11.993422 74.375246 2.530170 3.191331 0.298462 -3.753835 1.459276 2.947005 -4.413424 8.642649 -6.790520 -3.923919 -15.813302 -73.629976 -4.527962 2.613514 -4.299030 4.662169 -2.462835 -2.743254 -4.391530 11.555025 0.744221 0.138978 2.715244 -0.757889 -2.433080 -7.537240 -0.522127 0.000000 0.000000 0.000000 -0.134763 12.064596 0.232069 -0.275735 6.721681 -0.130536 6.961262 -11.772173 0.795412 -0.000000 0.000000 -0.000000
-269.880049 106.426993 313.351219 -121.685009 -8.222322 -1.668704 0.021007 5.728557 0.654361 0.001238 2.546053 0.290193 0.001238 2.546053 0.290193 -0.000281 1.909541 0.217604 -0.587468 15.424309 -0.071200 -1.071118 -7.539211 0.085984 0.134639 5.762525 7.070827 11.001188 -11.912370 74.418144 2.553444 3.204089 0.283337 -3.709019 1.461634 2.915978 -4.389570 8.580552 -6.787994 -3.926545 -15.766461 -73.723595 -4.546822 2.638505 -4.293209 4.622642 -2.476730 -2.683455 -4.368327 11.471475 0.732343 0.106247 2.708602 -0.759933 -2.427385 -7.508501 -0.501084 0.000000 0.000000 0.000000 -0.128968 11.956822 0.215378 -0.283601 6.764994 -0.142963 6.955089 -11.761023 0.814170 -0.000000 0.000000 -0.000000
-269.861324 106.426358 313.396401 -121.680798 -8.163149 -1.662205 0.025143 5.704353 0.660366 0.003034 2.535302 0.292812 0.003034 2.535302 0.292812 0.001060 1.901478 0.219561 -0.578818 15.410717 -0.071716 -1.054839 -7.564512 0.081904 0.100955 5.736600 7.064963 11.035501 -11.838819 74.459398 2.572074 3.213833 0.266428 -3.668461 1.462509 2.887251 -4.372136 8.528286 -6.786769 -3.931694 -15.720441 -73.813367 -4.561559 2.658760 -4.286164 4.590765 -2.485095 -2.632756 -4.347218 11.392623 0.721783 0.077747 2.703545 -0.761583 -2.421536 -7.481250 -0.481468 0.000000 0.000000 0.000000 -0.121095 11.856807 0.200817 -0.289124 6.803644 -0.153749 6.947859 -11.749920 0.830818 0.000000 0.000000 0.000000
-269.844582 106.426134 313.437721 -121.682535 -8.106796 -1.657606 0.034821 5.675596 0.666348 0.007298 2.522535 0.295354 0.007298 2.522535 0.295354 0.004253 1.891905 0.221450 -0.570420 15.406817 -0.069435 -1.040019 -7.571787 0.083065 0.067025 5.722473 7.061458 11.068956 -11.773458 74.502155 2.581193 3.219486 0.244646 -3.633523 1.459947 2.861112 -4.365521 8.491239 -6.785445 -3.945947 -15.672952 -73.900645 -4.570160 2.665922 -4.275146 4.572069 -2.482940 -2.596700 -4.328824 11.313998 0.712146 0.056667 2.702358 -0.763801 -2.414112 -7.454907 -0.462014 0.000000 0.000000 0.000000 -0.107785 11.764383 0.189280 -0.291503 6.836929 -0.162967 6.938663 -11.739777 0.846020 0.000000 0.000000 0.000000
-269.829395 106.426757 313.475728 -121.686702 -8.054144 -1.654411 0.047575 5.645160 0.672294 0.012931 2.509027 0.297845 0.012931 2.509027 0.297845 0.008473 1.881777 0.223295 -0.562576 15.408544 -0.066210 -1.026555 -7.568602 0.086153 0.034112 5.715754 7.060054 11.102936 -11.715610 74.543279 2.585673 3.222104 0.221093 -3.602829 1.455882 2.837282 -4.365334 8.464018 -6.785387 -3.962721 -15.626319 -73.984102 -4.574663 2.668331 -4.262887 4.561062 -2.475338 -2.569761 -4.312525 11.240064 0.703866 0.039818 2.702752 -0.765620 -2.406535 -7.430052 -0.443988 0.000000 0.000000 0.000000 -0.092419 11.679715 0.179870 -0.291542 6.865549 -0.170537 6.928406 -11.729679 0.859113 0.000000 0.000000 0.000000
-269.815456 106.427491 313.510969 -121.689595 -8.005614 -1.651123 0.059372 5.614400 0.677965 0.018144 2.495374 0.300226 0.018144 2.495374 0.300226 0.012379 1.871540 0.225060 -0.554729 15.414346 -0.066426 -1.011780 -7.557875 0.082776 0.002514 5.709512 7.060816 11.134850 -11.660633 74.579190 2.592605 3.224333 0.201507 -3.574877 1.455725 2.816105 -4.363784 8.440268 -6.788637 -3.970911 -15.579927 -74.062616 -4.577607 2.688763 -4.252503 4.548834 -2.468537 -2.542617 -4.302597 11.173902 0.694742 0.027056 2.698606 -0.767245 -2.398315 -7.404190 -0.427352 0.000000 -0.000000 0.000000 -0.076283 11.602094 0.171596 -0.292895 6.890345 -0.177867 6.918264 -11.717582 0.869992 0.000000 0.000000 0.000000
-269.802625 106.428228 313.543007 -121.691650 -7.960101 -1.647367 0.069282 5.581879 0.683261 0.022527 2.480935 0.302466 0.022527 2.480935 0.302466 0.015664 1.860713 0.226723 -0.546198 15.426295 -0.072450 -0.993532 -7.535783 0.068249 -0.027920 5.701048 7.064404 11.163062 -11.606660 74.608443 2.601937 3.227381 0.188146 -3.551585 1.466056 2.800394 -4.358120 8.418467 -6.796466 -3.963701 -15.532692 -74.134914 -4.579552 2.746274 -4.245637 4.531774 -2.464245 -2.511877 -4.301515 11.116020 0.684556 0.019522 2.686202 -0.769525 -2.387948 -7.375210 -0.411491 0.000000 0.000000 0.000000 -0.058090 11.530933 0.165078 -0.296009 6.909955 -0.185658 6.908128 -11.701057 0.877433 0.000000 0.000000 0.000000
-269.791041 106.429076 313.572279 -121.692432 -7.918710 -1.643516 0.078234 5.549033 0.688286 0.026490 2.466351 0.304599 0.026490 2.466351 0.304599 0.018635 1.849777 0.228307 -0.537661 15.442327 -0.081905 -0.973977 -7.506130 0.047283 -0.057042 5.693062 7.070152 11.189184 -11.555546 74.632483 2.613733 3.230053 0.178752 -3.531038 1.480292 2.787356 -4.351084 8.400145 -6.807595 -3.947902 -15.485652 -74.202215 -4.579870 2.821800 -4.240638 4.513507 -2.460751 -2.480918 -4.306796 11.065906 0.673566 0.016071 2.669255 -0.771603 -2.376938 -7.345223 -0.397019 0.000000 0.000000 0.000000 -0.039131 11.466817 0.159693 -0.300441 6.925741 -0.193213 6.898107 -11.682532 0.882662 0.000000 0.000000 0.000000
-269.780823 106.429620 313.600651 -121.686930 -7.885178 -1.639177 0.084993 5.521529 0.693107 0.029474 2.454138 0.306667 0.029474 2.454138 0.306667 0.020870 1.840618 0.229847 -0.530596 15.454695 -0.092081 -0.956927 -7.483276 0.025553 -0.084101 5.686716 7.076151 11.215496 -11.508217 74.652068 2.635254 3.231410 0.172282 -3.505985 1.484115 2.768913 -4.343122 8.383520 -6.820245 -3.932849 -15.441357 -74.267127 -4.579322 2.880944 -4.235676 4.495954 -2.459162 -2.450580 -4.315282 11.025113 0.660282 0.013128 2.652797 -0.771135 -2.369307 -7.318071 -0.385738 0.000000 0.000000 0.000000 -0.024550 11.410803 0.152587 -0.308515 6.942631 -0.199838 6.889700 -11.667250 0.889250 0.000000 0.000000 0.000000
-269.772250 106.429553 313.629172 -121.671249 -7.861623 -1.633781 0.087701 5.502178 0.697783 0.030650 2.445542 0.308717 0.030650 2.445542 0.308717 0.021748 1.834173 0.231380 -0.526154 15.459434 -0.103024 -0.944532 -7.474576 0.003422 -0.108663 5.682255 7.081202 11.241619 -11.465535 74.666968 2.674620 3.231434 0.169929 -3.470276 1.466162 2.738185 -4.333763 8.368275 -6.834277 -3.921016 -15.401305 -74.331243 -4.579388 2.905793 -4.230653 4.479531 -2.461461 -2.420580 -4.331955 10.995429 0.642097 0.012562 2.638188 -0.766419 -2.365560 -7.295623 -0.379873 -0.000000 0.000000 0.000000 -0.017458 11.363587 0.141801 -0.323063 6.963250 -0.205281 6.884426 -11.658122 0.899443 0.000000 0.000000 0.000000
